<svg xmlns="http://www.w3.org/2000/svg" id="Layer_1" data-name="Layer 1" viewBox="0 0 2428.11 966">
	<title>Rexan Hotel Logo</title>
	<path fill="#000" d="M64,240.18c.07-8,2.71-15,3.61-22.26.6-4.85,1.75-9.63,2.38-14.48,1-7.63-.88-13.9-7.11-19.36-8.84-7.73-16.81-16.44-26-25.53,6.18-.6,11.15-1,16.1-1.57,10.19-1.14,20.52-1.62,30.08-6a8.11,8.11,0,0,0,4-4c5.63-10.87,9.84-22.44,16.3-32.9a17.27,17.27,0,0,1,4.31-5c4.83,10.08,10.25,19.77,14.16,30S133.7,152.6,143.26,154c10.8,1.56,21.63,3,33,4.5-2.86,3.93-5.41,7.7-8.9,10.63-6.7,5.63-13,11.69-19.58,17.43-5.37,4.68-6,9.82-4.47,16.16,2.91,12.16,4.78,24.52,6.74,37.37-9.22-2.57-16.47-8-24.39-12-5.54-2.8-11-5.72-16.55-8.53-3.33-1.69-6.11.44-8.74,1.79-11.48,5.88-22.83,12-34.24,18C65.69,239.62,65.22,239.73,64,240.18Z" transform="translate(-36.89 -18)"/>
	<path fill="#000" d="M275,44.66c5.28,11.06,10.59,21.52,15.29,32.24,3.32,7.57,9.14,10.67,16.79,12.18,12,2.37,24.21,3.33,36.41,5a16.07,16.07,0,0,1-4.64,6.58c-8.28,7.61-16.43,15.36-24.87,22.77-4.42,3.88-4.69,8.49-3.53,13.52,2.89,12.57,5,25.25,6.85,38.35a10.9,10.9,0,0,1-6.13-1.66c-10.09-5.38-20.31-10.55-30.21-16.28-4.9-2.84-9.16-2.48-13.82,0-10.65,5.73-21.34,11.38-32,17-1.13.6-2.33,1.09-4.42,2.06,1.33-7,2.58-13.09,3.66-19.25,1.56-8.93,3.88-17.75,2.73-27a11.35,11.35,0,0,0-3.64-7.25Q220.7,110.71,208,98.43c-1.1-1.07-2.82-1.84-2.79-4.09,7.67-.78,15.29-1.49,22.9-2.36a108.49,108.49,0,0,0,19.61-3.85c7.28-2.23,8.64-8.85,11.2-14.47Q265.12,60,272.52,47.06A14,14,0,0,1,275,44.66Z" transform="translate(-36.89 -18)"/>
	<path fill="#000" d="M482,18c4.56,9.75,9.75,19.27,13.51,29.32C499.68,58.48,508.38,61.6,518.68,63l31.94,4.37c-3,3.53-5.24,7-8.23,9.58-7.09,6.2-13.91,12.69-21,18.93-4.86,4.31-5,9.33-4.07,14.88,2.15,12.19,4.4,24.37,6.58,36.55a5.68,5.68,0,0,1-.35,1.72c-10.06-4.19-20.12-8.65-28.63-15-11.65-8.65-21-4.37-31.28,1.66-8.14,4.78-16.19,9.86-25.61,13.11-.27-7.27,2.35-13.73,3.29-20.44,1-7.3,2.82-14.46,2.74-21.94A13,13,0,0,0,440,96.37c-8.39-8.1-16.56-16.43-24.77-24.72-1.13-1.14-2.68-2-3.18-4.23,4.21-.48,8.34-1.08,12.49-1.4,10.12-.79,20.2-1.71,29.88-5a12.07,12.07,0,0,0,7.9-7c5.64-12.27,10.42-25.06,18.71-36Z" transform="translate(-36.89 -18)"/>
	<path fill="#000" d="M751.85,96.21c-.3,2.84-2,4.4-3.57,6q-12,12.19-25.11,23.24c-4.46,3.78-4.93,8.86-3.82,14.38,2.33,11.66,4.45,23.36,6.6,35.05a15.41,15.41,0,0,1-.28,3.47c-6.77-2.45-12.69-5.89-18.73-9-6.53-3.36-12.88-7.06-19.39-10.46-3.46-1.81-7-1.3-10.39.47-10.68,5.64-21.33,11.35-32,17-1.41.74-2.72,2-5.3,1.27,1.16-6.4,2.09-12.94,3.57-19.36A97.06,97.06,0,0,0,646,132.84c-.1-2.93-1.51-5-3.49-6.79-8.49-7.92-15.9-17-25.08-24.18-1.34-1-2.07-2.87-3.44-4.84,9.57-1,18.63-2,27.66-3a56.82,56.82,0,0,0,16.52-4.05c6.82-3,7.87-10.23,10.55-15.93,4.31-9.17,8.72-18.2,14.88-27.5,2.64,5.81,4.91,11,7.39,16.18q5.21,10.82,10.69,21.52c3.25,6.35,10,6.38,15.61,7.58A213.56,213.56,0,0,0,751.85,96.21Z" transform="translate(-36.89 -18)"/>
	<path fill="#000" d="M899.43,242.44a255,255,0,0,1-32.2-16.95c-7.9-4.81-14.52-4.43-22.51.31-10,5.94-20.2,11.9-31.95,16.61,1.69-8.65,3.49-16.53,4.71-24.5,1.12-7.35,3-14.65,1.63-22.27a11.83,11.83,0,0,0-3.68-6.73c-8.5-8.16-17-16.3-25.45-24.51-1.1-1.07-2.83-1.83-2.76-4,8-.82,16-1.6,23.91-2.46a93.23,93.23,0,0,0,20.53-4.28c2.7-.93,4.11-3,5.33-5.48,6-12,10.75-24.54,18.21-35.74.37-.55.82-1,1.82-2.31,2.85,6.11,5.37,11.62,8,17.08,3.17,6.63,6.41,13.23,9.63,19.84,2.05,4.21,5.75,6,10.08,6.92,11.19,2.49,22.42,4.62,33.92,5,2.29.08,4.34,1.55,7.39.83-4.39,7.14-10.29,12-15.81,17.09-4.94,4.6-10.29,8.79-15,13.58-3,3-3.75,7-2.79,11.42C895.2,215,897.67,228.12,899.43,242.44Z" transform="translate(-36.89 -18)"/>
	<path fill="#000" d="M158,984c-4.26-2.19-8.94-3.29-13.09-5.92-11.71-7.43-17.48-18.67-17.63-31.68-.23-20.06,15.24-38.13,36.64-38.39,2.47,0,4.95,0,7.64,0V322.74c-17.76,1.38-34.86-7.51-41.92-25.5-5-12.64-.59-32.58,9.27-40.64,16.17-13.22,32.22-13.94,48.58-4.36,14.75,8.64,20.07,26.13,14.71,47.46H761.51c-6.59-14.75-3.62-28.06,5.47-40,6.21-8.14,15.37-12.66,25.37-13.57,25.85-2.37,43.92,16.51,43.3,38.65-.69,24.55-20.58,39.5-44.21,37.91V907.86c6.26.39,12.9-.4,19.14,2.13,13.53,5.48,22,15.36,24.32,29.64,3.65,22.31-10.68,39.41-29.68,43.93-.1,0-.14.29-.21.44H789c-.31-1-1.23-.82-2-1-12.75-3.39-21.31-11.36-26.28-23.56-3.85-9.44-3.29-18.72.28-28.05H202c6.08,16.51,2.54,30.52-9.44,42.57-5.17,5.2-11.83,7.69-18.55,10.06ZM777,615.52q0-146.47.1-292.95c0-6.12-1.46-7.58-7.35-7.58q-288.2,0-576.39,0c-6.38,0-7.45,1.77-7.44,7.48q.17,292.7.09,585.39c0,6.32,1.8,8.13,8.25,8.13H768.65c6.67,0,8.35-1.76,8.35-8.53Q777,761.49,777,615.52Z" transform="translate(-36.89 -18)"/>
	<path fill="#000" d="M350.18,595.39c14.54-1.5,28.59-2.6,42.54-4.48,18.79-2.53,37.29-6.69,54.41-15.06,17.61-8.62,31.61-21.14,38.05-40.44,4-12,4.41-24.29,3-36.95a157.8,157.8,0,0,0-12.65-47c-8.93-20.2-24.69-32.5-46.67-36.44-8.63-1.55-17.37-1.55-26.07-2.18-13.95-1-27.91-.05-41.8-.94-22.2-1.42-43.1-7.2-61-21.33-.52-.41-.93-1-1.43-1.39-1.88-1.61-3.78-3.19-6.74-5.69,5.81-.66,10.08-1.22,14.13-1.26,10.29-.11,20.58-.75,30.78-1.46,19-1.31,37.88-.62,56.81-.64,28.68,0,56.94,3.51,83.84,14,11.72,4.58,22.74,10.61,32.38,19.09,18,15.86,27.57,35.81,31.28,59.28,4.36,27.54,1.22,53.86-10.4,79.19C523,568.56,513.22,584,499.11,596.31c-8.89,7.73-19.06,13.77-28.67,20.56-4.38,3.1-8.83,6.11-13.5,9.34,13.95,19.08,27.63,37.95,41.49,56.68,11.86,16,23.77,32,36,47.81,8.52,11,17.59,21.63,26.3,32.52a572,572,0,0,0,53.6,58.47,530.58,530.58,0,0,0,52.88,43.37c.87.63,1.6,1.46,3.33,3.07-11.42-.63-21.54.19-31.8-.92-13.23-1.43-26.14-3.8-38.69-8.15-18.93-6.56-35.51-17-50.65-30.06-24.24-21-42.9-46.56-61.44-72.32-20.8-28.9-41.32-58-62.57-86.57A563.79,563.79,0,0,0,389,625.46a61.21,61.21,0,0,0-20.23-14.61C361.43,607.54,355.79,601.87,350.18,595.39Z" transform="translate(-36.89 -18)"/>
	<path fill="#000" d="M301.41,602.52c22,3.64,40.92,11.2,55.27,27.71,7.11,8.18,14,16.56,20.89,24.92,7.19,8.73,14.27,17.55,21.41,26.33,10.14,12.46,20.24,25,30.44,37.37,9.8,11.92,19.75,23.72,29.54,35.64,10.2,12.41,20.26,24.95,30.46,37.36,9.8,11.92,19.72,23.74,29.55,35.64,9,10.86,17.87,21.76,26.32,33.61-5.59-1.11-11.31-1.77-16.74-3.39A134.83,134.83,0,0,1,472,824.65c-14.8-14.47-27.14-30.81-38.58-47.89-16.82-25.13-34.81-49.4-53.37-73.26-17-21.82-33.76-43.79-50.72-65.63C320.3,626.25,311.09,614.77,301.41,602.52Z" transform="translate(-36.89 -18)"/>
	<path fill="#000" d="M914.07,466.09c78.46.08,156.33-2.09,234.84-.83.67,26.21-2.4,52.3-2.46,78.58-3.47-3.57-4.53-8.19-6.49-12.32-3.48-7.36-6.91-14.78-9.73-22.41-1-2.75-2.3-3.13-4.62-3.13-18.66,0-37.37-.78-56,.2-29.61,1.55-59.2.22-88.79.81-1.79,0-3.57,0-5.6,0V652.92c10.88-.07,21.77.7,32.64-.48a51.42,51.42,0,0,1,5.4-.42c17.5,0,35-.3,52.49.07,12.8.27,25.52-1.48,38.3-1.07,2.06.07,3-.84,4.26-2.51,5.61-7.55,8.44-16.61,13.6-24.39a3.3,3.3,0,0,1,2.18-1.82c-2.21,9-4.27,17.79-6.53,26.51-3.11,12-6.52,23.85-9.47,35.85-.76,3.08-1.71,4.2-5.05,4.43-26.42,1.85-52.9-.21-79.28,1.14-16.08.82-32.15.07-48.13,1-1.07,1.52-.63,3.06-.63,4.5,0,42.82,0,85.65-.12,128.47,0,4.62,1.31,5.69,5.89,6,11.77.78,23.47,2.51,35.21,3.72,4.59.47,9.22.62,13.81.92,14.9,1,29.86,2,44.78,1.09,16.67-1,33.25-3.12,48.38-11,12.45-6.44,22.47-15.87,31-26.9,8.41-10.86,16.76-21.78,25.14-32.66a12.51,12.51,0,0,1,3.22-3.14c-6,36.82-23.17,69.93-32.64,105.63-82.7.5-165.26,0-248.17-1.27,3.69-5.44,7.62-10.72,10.58-16.67,7.11-14.27,10-29.47,12-45.12,2.55-19.85,1.94-39.74,1.76-59.61-.16-17.54-1.2-35.08-2.17-52.58a453.39,453.39,0,0,1-.42-47.29c.71-14.46-.4-28.93.87-43.3a303.89,303.89,0,0,0,.61-41.3c-.84-17.41-1-34.88-3.56-52.24-1.92-12.94-3.55-25.87-7.12-38.48C913.8,468.95,914.07,467.72,914.07,466.09Z" transform="translate(-36.89 -18)"/>
	<path fill="#000" d="M1208.52,459.74c4.56-1.73,8.18.2,11.87.25,27.93.36,55.89.14,83.79,1.24,14.37.57,28.74.32,43.18,1.39-8.26,3.66-16.5,7.22-25.95,6.38-.91,5.13-1.75,9.9-4,14.3a5.66,5.66,0,0,0,.22,5.88c7.76,13.23,15.27,26.6,23,39.87,12,20.64,24.63,40.79,39.42,59.58a232.36,232.36,0,0,0,21.34,23c4.78-7.66,9.35-14.9,13.85-22.19q19.41-31.44,38.77-62.9c7.36-11.94,14.69-23.89,22.14-35.78,1.8-2.87,2.34-5.65.88-8.75a8.09,8.09,0,0,0-.38-.89c-2.43-3.85.69-9.83-3.62-12.38-3.79-2.23-8.68-2.53-12.78-4.66-1.95-1-4.13-1.6-6.06-3.46L1581,463.77c-6.67,4.84-14,7.92-20.29,12.89-10.83,8.57-21.25,17.46-30.76,27.61a524.35,524.35,0,0,0-39.16,47.53q-20.51,27.78-38.35,57.37C1444.09,623,1436,637,1427.64,650.8c-1.74,2.88-1.66,5.2-.24,8.21,9.41,19.82,20.84,38.46,32.92,56.72,10.53,15.92,20.68,32.12,31.66,47.73,8.46,12,17.89,23.38,27,35,9.29,11.86,18.69,23.65,28,35.48,6.79,8.61,13.5,17.3,20.36,25.86,2.17,2.7,6.3,3.7,6.92,8.23h-3.34c-29.83,0-59.66,0-89.49.06-3.37,0-4.77-.89-5.56-4.42-2.06-9.22-4-18.49-6.16-27.65-1.93-8.05-7.06-15-11.36-22.11q-20-33.1-40-66.15-10.24-17-20.36-34c-1.54-2.59-3-2.59-5.42-.89a109.8,109.8,0,0,0-28.25,29.39c-11.64,17.54-23,35.29-32.74,53.95-9.49,18.25-17.75,37.14-26.55,55.75-1,2.13-1.94,4.35-.08,6.41,1.29,1.43.17,2.44-.35,3.45-1.22,2.31-2.65,4.51-4.23,7.15l-98.51-5.73c4.22-3.5,8.43-4.47,12.24-6.18,23.43-10.48,42-26.29,54.88-48.69,11.22-19.54,24-38.07,37.1-56.4,13.56-19,27-38.1,38.78-58.26a239.69,239.69,0,0,0,14.54-28.3c.91-2.17.1-3.52-.68-5-7.65-14.61-16.13-28.75-24.68-42.84-22.77-37.52-47.82-73.59-70.78-111a112.39,112.39,0,0,1-5.89-10.72c-4.84-10.23-15.21-13.4-23.76-18.89C1225.24,471.57,1217,466.14,1208.52,459.74Z" transform="translate(-36.89 -18)"/>
	<path fill="#000" d="M2012.86,867.86h-95.36c-2.35-8.14-1.44-16.6-3.31-24.77s-3.68-16.49-6-24.65c-7.59-26.85-18.81-52.35-28.67-78.37-1.05-2.77-2.48-4.22-6.07-4.2q-63,.29-126,0c-3.64,0-5.19,1.21-6.3,4.48-6.3,18.68-15,36.44-21.86,54.89-5.88,15.7-10.19,31.91-15.29,47.87-2.28,7.13-4.73,14.21-6.74,21.42-.72,2.57-1.73,3.5-4.37,3.49-16.66-.09-33.37.62-50-.32-8.72-.49-17.48-.1-27-1,5-4.33,9.32-8.47,14-12.12,10-7.79,17.59-17.63,24.23-28.26,9.85-15.76,14.68-33.7,21.75-50.66q11.93-28.63,23.89-57.26c7.07-17,14.06-34,21.14-51,7.4-17.74,14.88-35.44,22.31-53.16,7.24-17.27,14.31-34.62,21.72-51.81,10.31-23.93,17.17-49.2,28.14-72.86,5.87-12.65,14.73-22.27,29.58-25.47A313.48,313.48,0,0,1,1838.47,493c5.71,12.26,11.17,24.65,16.52,37.08,7.42,17.2,14.81,34.42,21.89,51.76,9.54,23.36,18.82,46.82,28.13,70.27,11.71,29.5,23.26,59.06,35,88.53,8,20.11,16,40.27,24.87,60,4,8.77,6.81,18.17,12.47,26,6.93,9.54,15.26,18.07,22.13,27.64C2003.19,859.44,2009.26,861.86,2012.86,867.86Zm-197.33-299c-15.75,19.75-23.68,42-32.5,63.67-8.89,21.9-18.57,43.56-23,67.5,33.58-.69,66.68,2.15,100.82.6Z" transform="translate(-36.89 -18)"/>
	<path fill="#000" d="M2465,462c-11.14,9.35-20.42,20-23.34,34.79a63.88,63.88,0,0,0-1.59,11.65c-.16,19-.84,38,.16,57,.82,15.46-.33,30.94,1,46.29,1.21,14.47-.26,28.93.94,43.3,1.52,18.11-.12,36.24,1,54.3,1.86,31.1.61,62.2.76,93.3.08,15.7-.78,31.44-2.05,47.09-.66,8-1,16.33-4.5,24.36-6.89-.8-12.81-4.2-18.51-7.84-10.53-6.73-20-14.81-29.37-23.08-10.24-9-19.67-18.85-29.23-28.54-18.46-18.71-36-38.29-53.26-58.1-8.57-9.82-17.47-19.35-26.06-29.16-13-14.86-25.83-29.89-38.85-44.74-6.75-7.7-13.88-15.07-20.65-22.76-11.61-13.21-23.91-25.75-36.23-38.29-14.75-15-29.49-30-48.08-40.38-.1-.05-.3.08-.59.17-.93,1.06-.43,2.43-.46,3.68-1.37,64.09-1.41,128.18-.77,192.27.22,22,1.16,44.07,5.69,65.78,1.65,7.9,7,13.45,11.36,19.66,1,1.47,2.23,2.76,2.52,5h-85.2a168.4,168.4,0,0,0,8.56-22,227.77,227.77,0,0,0,6.8-35.51c2.45-19.82,3.3-39.74,4.25-59.68,1.38-28.95.69-57.88.46-86.8-.07-9.39-.23-18.87-.7-28.3-.91-18.19-1.53-36.39-2.16-54.6-.5-14.53-1.32-29.07-2-43.6-.78-17.2-1.34-34.41-2.13-51.6-.37-8.1-.34-16.14-.78-24.69,13.95,2,26.52,5.72,37.85,13.39,13.79,9.35,22.85,23,33.16,35.54,5.62,6.84,11,13.92,16.92,20.48,7.91,8.73,16.43,16.9,24.39,25.58q21,22.88,42.33,45.41c9.68,10.21,19.23,20.55,28.86,30.82q42.32,45.12,86.61,88.3c11.25,11,22.8,21.79,36.21,30.89,1.15-2.14.7-4.14.7-6,0-65-.06-130,.13-195,0-8.42,1.76-16.91.76-25.29-1.56-13,.11-26.14-1.84-39.12-1.24-8.31-5.59-13.56-13.73-16-7.27-2.13-14.41-4.7-20.61-9.93h4.69c30.83,0,61.66,0,92.48,0,4.71,0,9.43.62,14.14,1Z" transform="translate(-36.89 -18)"/>
</svg>