<svg id="eVcH3hf9XIZ1" xmlns="http://www.w3.org/2000/svg" xmlns:xlink="http://www.w3.org/1999/xlink" viewBox="0 0 1900.6 1531.7" shape-rendering="geometricPrecision" text-rendering="geometricPrecision">
<style><![CDATA[
#eVcH3hf9XIZ6 {animation: eVcH3hf9XIZ6_c_o 3000ms linear infinite normal forwards}@keyframes eVcH3hf9XIZ6_c_o { 0% {opacity: 0} 10% {opacity: 1} 100% {opacity: 1}} #eVcH3hf9XIZ7 {animation: eVcH3hf9XIZ7_c_o 3000ms linear infinite normal forwards}@keyframes eVcH3hf9XIZ7_c_o { 0% {opacity: 0} 10% {opacity: 0} 20% {opacity: 1} 100% {opacity: 1}} #eVcH3hf9XIZ8 {animation: eVcH3hf9XIZ8_c_o 3000ms linear infinite normal forwards}@keyframes eVcH3hf9XIZ8_c_o { 0% {opacity: 0} 20% {opacity: 0} 30% {opacity: 1} 100% {opacity: 1}} #eVcH3hf9XIZ9 {animation: eVcH3hf9XIZ9_c_o 3000ms linear infinite normal forwards}@keyframes eVcH3hf9XIZ9_c_o { 0% {opacity: 0} 30% {opacity: 0} 40% {opacity: 1} 100% {opacity: 1}} #eVcH3hf9XIZ10 {animation: eVcH3hf9XIZ10_c_o 3000ms linear infinite normal forwards}@keyframes eVcH3hf9XIZ10_c_o { 0% {opacity: 0} 40% {opacity: 0} 50% {opacity: 1} 100% {opacity: 1}}
]]></style>
<g><path d="M1393.1,1447.5h-885.9c8.8,22.7,5.5,43.6-9.3,62-9.6,12.1-22.9,20-38.4,21.7-39.3,4-67.1-19.9-70.7-58.5-1.2-11.4,3-22.9,9.1-33.1c6.5-10.6,15.6-17.9,26.3-23.7c10.8-5.8,22.7-5.1,34.8-5v-927.7c-24.9,1.8-54-8.9-66.4-40.4-8-20-1.2-51.5,14.6-64.4c26-21.4,51.9-22.2,77.7-6.6c23.2,14.1,31.3,41.6,22.7,74.9h886.5c-10.4-23.4-5.8-44.4,8.6-63.3c10.1-13.1,24.7-20.2,40.9-21.5c41.4-3.3,68.9,27.3,67.9,61.3-1.2,38.9-32.6,62.6-70.1,60.1v927.7c25.3-2.7,46.6,5.8,60.6,27.8c7,10.9,10.9,23.5,9.3,36.9-5.5,45.7-45.1,60.3-74.1,54.8-31.5-6-59.2-41.6-44.1-83Zm25.5-500.4c0-154.7,0-309.5.2-464.4c0-9.9-2.5-12.1-11.6-12.1h-913.6c-10.4,0-11.6,1.3-11.6,11.8c0,309.3,0,618.5,0,927.8c0,10.1,2.8,12.9,13.1,12.9h910.4c10.6,0,13.3-2.8,13.3-13.6c0-153.9-.2-308.1-.2-462.4v0Z" fill="#b49755"/><path d="M664.8,926.6c37.3,6.5,68.6,20,92.3,49.5c15.9,19.9,32.3,39.4,48.7,59c18.4,21.9,36,44.4,54.2,66.4c16.2,19.7,32.8,39.1,49,58.8c15.6,18.9,30.5,38.1,46.1,57c16.1,19.6,32.5,38.8,48.5,58.2c16.4,19.9,32.5,39.8,49.9,61.1-17.4-2.3-34.3-6.6-50.7-13.1-34.1-13.4-61.3-36.3-85.3-63.1-16.2-18.2-30.3-38.1-43.9-58.5-26.2-39.4-54.7-77.4-83.7-114.8-23.2-29.8-46.2-60-69.4-90-18.3-23.3-36.7-46.3-55.7-70.5Z" fill="#b49755"/><path d="M911.6,963.9c35,49.5,70.7,97.6,106.9,145.3c18.7,24.7,37.9,48.7,57.7,72.6c27.2,33.1,55.7,64.9,86.8,94.1c25.8,23.9,53,46.1,81.5,66.6c1.3,1,2.7,2.3,5.6,5-18.2-1-34.3.3-50.4-1.5-18.9-2.2-37.4-5.1-55.5-10.9-32.5-10.4-61-27.8-86.8-50-34.6-30-62-66.1-88.8-102.7-36.1-49.4-70.7-99.6-107.2-148.6-19.2-25.8-39.3-51.2-61.5-74.9-10.3-10.9-24-16.2-36.3-23.9-8.3-5.1-14.6-12.4-22-20.4c14.9-1.2,28.7-1.8,42.2-3.5c35.8-4.1,71.2-9.4,104.7-24c28.7-12.4,52-30.7,64.8-59.8c8.9-20.7,10.3-42.4,7.8-64.9-2.3-19.6-6.8-38.8-13.1-57.3-6-18.2-14.1-35.1-27.7-48.9-14.9-15.1-33.3-23.4-53.8-27.2-13.9-2.5-28.2-2.3-42.1-3.5-21.5-1.8-43.2,0-64.6-1.5-35.1-2.3-68.4-11.3-96.6-33.8-3.8-3.1-7.3-6.8-11.8-11.1c6.6-1.5,13.3-2.2,20-2.2c14.4-.2,28.8-1.5,43.2-2.3c33.6-2.2,67.4-1.3,101.1-1.2c44.1.3,87.6,6.1,128.9,22.4c18.6,7,35.6,17.1,50.7,30c28.7,25.2,43.9,56.7,49.7,93.9c3,17.4,3.8,35,2.7,52.5-1.7,25-8,49.7-18.6,72.4-12.3,26-27,50.4-48.7,69.8-14.6,13.1-31.3,22.9-47.2,34.3-7.2,5.4-14.3,10.2-21.6,15.2Z" fill="#b49755"/><path id="eVcH3hf9XIZ6" d="M357.7,144.6c7.8,16.1,16.2,31.3,22.4,47.4c6.3,16.2,18.9,21.2,34,23.5c17.1,2.5,34.3,4.6,52.2,7.1-4.5,6.3-8.6,12.3-14.1,16.9-10.6,8.9-20.5,18.6-31,27.7-8.4,7.5-9.4,15.6-7.1,25.7c4.6,19.2,7.6,38.9,10.8,59.3-14.6-4.1-26.2-12.6-38.6-18.9-8.8-4.5-17.4-9.1-26.2-13.6-5.3-2.7-9.6.7-13.9,2.8-18.2,9.3-36.1,19.1-54.3,28.5-.8.3-1.8.7-2.7,1-1.8-8.9,2.2-16.9,3.3-25.2c1.8-13.9,5.8-27.5,5.6-41.6.3-6.6-2.3-12.9-7.1-17.4-13.1-12.6-25.8-25.7-38.8-38.6-1.8-1.8-3.5-3.8-6.1-6.6c9.1-.8,17.1-1.5,24.9-2.5c15.9-1.8,32-2.5,46.9-9.3c3.3-1.5,5.8-4,7.3-7.3c8.9-16.9,15.4-35.1,25.7-51.4c1.5-2.7,3.9-5.5,6.8-7.5Z" opacity="0" fill="#b49755"/><path id="eVcH3hf9XIZ7" d="M690.1,250.3c-15.4-4.6-27.5-13.4-40.6-19.9-8-4-15.6-8.3-23.4-12.3-5.6-2.8-10.8.5-15.4,3-17.1,8.8-34,17.9-50.9,26.8-1.8,1-3.6,1.7-7.1,3.3c2.2-10.9,4-20.7,5.8-30.5c2.5-14.1,6.1-28.2,4.3-42.7-.3-4.5-2.5-8.6-5.6-11.6-13.4-12.9-27-25.8-40.4-38.8-1.8-1.7-4.5-3-4.5-6.5c12.1-1.3,24.2-2.2,36.3-3.8c9.9-1.3,19.9-3,29.8-5.3c12.1-2.8,15.1-13.9,19.2-23.5C604.1,74.1,611.2,60,619,46.3c.8-1.3,1.8-2.7,3.6-5.5c4.3,9.6,7.8,17.6,11.6,25.2c5.5,11.4,11.1,22.9,16.9,34.1c3.8,7.5,10.9,9.3,18.4,11.1c16.9,4,34.1,6.6,51.4,7.6c3.6.3,7.1,1.2,11.1,1.8-4.8,9.3-12.9,15.4-19.9,22.2-8.6,8.3-17.7,16.2-27,23.9-7.1,6-7.6,13.4-5.8,21.4c4.5,20.6,7.8,40.8,10.8,62.2Z" opacity="0" fill="#b49755"/><path id="eVcH3hf9XIZ8" d="M838.9,78.5c20.2-2.5,38.9-3,57.2-7.1c11.3-2.5,21-5.1,25.8-18.4c5.6-15.2,12.8-30,21.4-43.9c2-3.1,3.5-6.5,8-9.1c4.3,9.3,8.4,18.6,12.8,27.7c4.3,9.1,8.9,18.7,13.6,27.8c6.6,13.3,20,13.4,32,15.6c16.2,3,32.6,4.6,50.4,7.1-5.8,6.1-9.6,12.3-15.4,17.2-12.1,10.1-23.4,21.2-34.5,32.3-5.5,5.5-3.6,12.8-2.7,19.4c3.3,19.4,7,38.6,10.3,58c0,1-.3,1.8-.7,2.7-15.9-6.8-31.8-13.8-45.4-23.7-18.4-13.8-33.3-7-49.5,2.7-12.9,7.6-25.7,15.6-40.6,20.9-.5-11.6,3.8-21.7,5.1-32.3c1.5-11.3,4.3-22.4,4.5-34c.3-6.8-2.5-13.4-7.6-17.9C870.5,111,857.9,98,845.3,85.4c-1.9-1.9-3.6-3.9-6.4-6.9Z" opacity="0" fill="#b49755"/><path id="eVcH3hf9XIZ9" d="M1201.7,253.1c.7-10.4,3-20.7,5.3-30.8c3.1-13.3,4.5-26.8,4.1-40.3c0-3.5-1.5-6.6-4-8.9-13.8-12.9-25.8-27.7-40.9-39.4-2.3-1.8-3.6-5-5.6-7.8c17.4-3.3,34.5-4.6,51.4-6.3c20-2,29.2-13.8,35.5-30.5c5.6-15.1,13.6-29,23.2-43.6c4.1,8.9,8,16.9,11.8,24.9c5.5,11.4,10.9,22.9,16.6,34.3c5.1,10.3,16.2,10.6,25.3,12.6c17.9,3.8,36.1,6.1,54.3,7c.2,3.5-1.7,5.8-3.8,8-13.1,13.3-26.7,26-40.9,37.9-7.3,6.1-8.3,14.2-6.5,23.4c3.8,18.4,7.1,37.1,10.4,55.5c0,2-.2,3.8-.5,5.8-10.1-5-19.7-9.4-29-14.2-9.8-5.1-19.4-10.9-29.2-16.2-5.8-3.3-12.9-3.3-18.7,0-16.9,8.9-33.8,18.1-50.7,27-2.4.8-4.6,2.8-8.1,1.6Z" opacity="0" fill="#b49755"/><path id="eVcH3hf9XIZ10" d="M1475.4,355.8c3.3-17.2,6.6-32.8,9.1-48.5c1.3-9.1,3.5-18.4.8-27.7-1-3.3-2.8-6.1-5.3-8.4-13.4-12.9-27-25.8-40.4-38.8-1.8-1.7-4.3-3-4.8-6.6c7.5-.8,14.9-1.5,22.2-2.3c15.4-1.5,30.8-2.8,45.9-7.6c5-1.5,9.1-5.1,11.1-9.8c9.4-18.7,16.9-38.4,28.5-56c.7-1,1.3-2.3,2.8-4.8c5,10.8,8.9,19.7,12.9,28.5c5,11.1,10.4,22,16.6,32.5c2.3,4,6.3,7,10.8,8.1c17.9,5.3,36.4,7.8,55,9.3c4.3.3,8.8,1.2,13.9,1.8-6.3,10.8-15.7,18.2-24.2,26.3-7.8,7.5-16.2,13.9-23.9,21.4-4.8,4.8-6.1,11.1-4.8,18.1c3.8,18.4,7.1,37.1,10.6,55.5.2,2.8.2,5.6,0,8.6-15.6-6.6-29.3-14.7-43.4-22.4-6-3.3-11.8-6.5-17.9-9.4-8.3-4-14.9.7-21.7,4.3-17.5,9-34.2,19.5-53.8,27.9Z" opacity="0" fill="#b49755"/></g></svg>
