<?xml version="1.0" ?><svg viewBox="0 0 96 96" xmlns="http://www.w3.org/2000/svg"><title/><g data-name="Layer 2" id="Layer_2"><g data-name="Layer 2" id="Layer_2-2"><path d="M48,0A48,48,0,1,0,96,48,48,48,0,0,0,48,0Zm2.71,25.64c10.69.33,19.93,10,19.8,20.37a4.15,4.15,0,0,0,.05.79c0,.85-.05,1.73-1.23,1.7-1.34,0-1.15-1.32-1.23-2.33V45.9c-1.43-11-6.55-16.21-17.71-17.9-.93-.11-2.33.05-2.3-1.13C48.22,25.09,49.86,25.78,50.71,25.64ZM65,45.49a.86.86,0,0,1-.85.88c-1.21.22-1.4-.49-1.48-1.29a5.23,5.23,0,0,0-.08-.93C61.41,37.46,59,35,52.14,33.48c-1-.22-2.58-.11-2.3-1.62s1.65-1,2.74-.85c6.85.85,12.48,6.69,12.45,13.13C65,44.53,65.05,45.08,65,45.49Zm-5.7-.88a1.31,1.31,0,0,1-.6.16,1.07,1.07,0,0,1-.93-.36,1.9,1.9,0,0,1-.33-.93,4.94,4.94,0,0,0-4.61-4.8c-.85-.14-1.7-.44-1.29-1.53.27-.77,1-.85,1.7-.85,3-.08,6.61,3.51,6.55,6.61A1.86,1.86,0,0,1,59.27,44.61Zm11.38,19.3c-1.18,3.24-5.24,6.55-8.72,6.5a12.59,12.59,0,0,1-2.33-.63C47.15,64.55,37.5,56.54,30.94,45.57a59,59,0,0,1-4-8c-2.11-5.07.08-9.35,5.43-11.13a4.53,4.53,0,0,1,2.82,0c2.3.85,8.06,8.61,8.17,10.94.08,1.78-1.12,2.74-2.36,3.54A3.77,3.77,0,0,0,39,44.39a6.35,6.35,0,0,0,.58,2.19,20.55,20.55,0,0,0,11,10.5c1.78.8,3.51.71,4.74-1.1,2.17-3.21,4.85-3,7.79-1.07,1.43,1,3,2,4.36,3.1C69.39,59.56,71.8,60.76,70.65,63.91Z"/></g></g></svg>